<svg xmlns="http://www.w3.org/2000/svg" viewBox="0 0 700 144.205"><path d="M18.99 4.847h20.342l25.426 76.501L90.414 4.847h20.329l18.4 109.682h-20.189L97.192 45.26l-23.301 69.269h-18.4L32.397 45.26l-12.042 69.269H0L18.99 4.847zM210.111 47.397c6.161 7.957 9.241 16.784 9.241 26.48 0 7.658-1.901 14.819-5.703 21.481-3.803 6.664-8.984 11.873-15.543 15.627-6.56 3.754-13.766 5.632-21.617 5.632-8.35 0-15.88-2.182-22.588-6.548l-9.697 10.809-9.332-7.989 9.732-10.852c-6.885-7.907-10.328-17.232-10.328-27.974 0-12.632 4.626-23.151 13.881-31.555 8.16-7.46 17.588-11.19 28.285-11.19 8.857 0 17.091 2.56 24.704 7.676l9.362-10.439 9.142 8.205-9.539 10.637zm-52.179 39.78l30.308-33.792c-3.386-1.936-7.22-2.905-11.502-2.905-6.324 0-11.601 2.201-15.833 6.601-4.233 4.401-6.348 10.032-6.348 16.894 0 4.674 1.124 9.075 3.375 13.202zm38.52-24.55l-29.498 32.887c3.137 1.443 6.398 2.163 9.784 2.163 6.274 0 11.527-2.213 15.76-6.637 4.233-4.425 6.35-10.117 6.35-17.078-.001-4.075-.8-7.854-2.396-11.335zM287.419 2.088h20.356v112.441h-20.356v-8.575c-3.973 3.778-7.957 6.5-11.953 8.164-3.997 1.665-8.329 2.498-12.996 2.498-10.476 0-19.538-4.064-27.184-12.191s-11.469-18.231-11.469-30.309c0-12.527 3.699-22.791 11.097-30.795 7.398-8.003 16.384-12.005 26.96-12.005 4.865 0 9.432.92 13.702 2.759 4.27 1.84 8.217 4.598 11.843 8.276V2.088zM266.02 50.106c-6.292 0-11.519 2.225-15.68 6.673-4.162 4.449-6.242 10.154-6.242 17.113 0 7.008 2.117 12.776 6.353 17.298 4.236 4.524 9.45 6.785 15.643 6.785 6.392 0 11.692-2.224 15.903-6.673 4.211-4.448 6.317-10.277 6.317-17.485 0-7.058-2.106-12.775-6.317-17.15-4.211-4.373-9.536-6.561-15.977-6.561zM402.756 79.857h-65.392c.945 5.767 3.468 10.352 7.569 13.757 4.101 3.405 9.331 5.107 15.695 5.107 7.606 0 14.142-2.659 19.61-7.978l17.15 8.053c-4.276 6.065-9.396 10.55-15.36 13.458-5.965 2.908-13.049 4.362-21.25 4.362-12.726 0-23.091-4.014-31.093-12.042-8.004-8.028-12.005-18.082-12.005-30.161 0-12.378 3.989-22.654 11.968-30.832 7.978-8.176 17.981-12.265 30.012-12.265 12.774 0 23.162 4.089 31.166 12.265 8.004 8.178 12.006 18.976 12.006 32.398l-.076 3.878zm-20.357-16.031c-1.344-4.523-3.995-8.202-7.955-11.035-3.959-2.834-8.551-4.25-13.78-4.25-5.676 0-10.655 1.591-14.937 4.772-2.688 1.989-5.178 5.493-7.469 10.513h44.141zM410.644 33.404h17.448v10.215c1.888-4.027 4.399-7.084 7.531-9.171 3.132-2.088 6.561-3.131 10.289-3.131 2.634 0 5.393.697 8.277 2.088l-6.338 17.522c-2.386-1.193-4.35-1.789-5.891-1.789-3.132 0-5.779 1.939-7.941 5.816s-3.243 11.483-3.243 22.817l.075 3.952v32.807h-20.207V33.404zM460.437 33.404h20.356v8.314c4.616-3.891 8.797-6.598 12.545-8.119 3.747-1.522 7.582-2.282 11.504-2.282 8.041 0 14.866 2.809 20.475 8.425 4.716 4.772 7.073 11.831 7.073 21.176v53.611h-20.132V79.003c0-9.682-.434-16.111-1.303-19.289-.868-3.178-2.38-5.598-4.538-7.262-2.157-1.664-4.822-2.495-7.995-2.495-4.116 0-7.65 1.378-10.6 4.134-2.951 2.756-4.997 6.568-6.137 11.433-.596 2.533-.893 8.019-.893 16.459v32.547h-20.356V33.404zM553.144 0c3.569 0 6.629 1.293 9.182 3.877 2.553 2.585 3.829 5.717 3.829 9.395 0 3.629-1.263 6.723-3.792 9.283-2.528 2.561-5.551 3.84-9.069 3.84-3.619 0-6.705-1.305-9.258-3.914-2.552-2.61-3.828-5.779-3.828-9.507 0-3.579 1.263-6.636 3.79-9.171C546.527 1.268 549.574 0 553.144 0zm-10.177 33.404h20.356v81.124h-20.356V33.404zM583.51 3.504h20.356v29.9h12.08v17.522h-12.08v63.602H583.51V50.927h-10.439V33.404h10.439v-29.9z"/><path d="M614.013 33.404h20.802l21.072 50.902 23.252-50.902H700l-50.808 110.801H628.17l16.681-35.73-30.838-75.071z"/></svg>