<?xml version="1.0" encoding="iso-8859-1"?>
<!-- Generator: Adobe Illustrator 24.0.1, SVG Export Plug-In . SVG Version: 6.00 Build 0)  -->
<svg version="1.1" id="Layer_1" xmlns="http://www.w3.org/2000/svg" xmlns:xlink="http://www.w3.org/1999/xlink" x="0px" y="0px"
	 viewBox="0 0 804.541 165.741" style="enable-background:new 0 0 804.541 165.741;" xml:space="preserve">
<g>
	<path d="M21.826,5.571h23.379l29.223,87.926l29.488-87.926h23.365l21.147,126.062h-23.204l-13.518-79.614l-26.781,79.614H63.779
		L37.236,52.019l-13.84,79.614H0L21.826,5.571z"/>
	<path d="M241.489,54.475c7.081,9.146,10.621,19.29,10.621,30.434c0,8.802-2.185,17.032-6.555,24.689
		c-4.371,7.659-10.325,13.646-17.864,17.961c-7.54,4.314-15.822,6.473-24.846,6.473c-9.597,0-18.251-2.508-25.961-7.525
		L165.74,138.93l-10.726-9.183l11.185-12.473c-7.914-9.088-11.871-19.806-11.871-32.151c0-14.518,5.317-26.608,15.955-36.268
		c9.379-8.574,20.214-12.861,32.509-12.861c10.179,0,19.644,2.942,28.393,8.823l10.76-11.998l10.507,9.431L241.489,54.475z
		 M181.518,100.196l34.834-38.839c-3.891-2.226-8.298-3.339-13.219-3.339c-7.268,0-13.334,2.529-18.197,7.587
		c-4.865,5.059-7.296,11.53-7.296,19.417C177.639,90.395,178.931,95.453,181.518,100.196z M225.791,71.98l-33.903,37.798
		c3.605,1.658,7.354,2.486,11.245,2.486c7.211,0,13.249-2.543,18.113-7.628c4.865-5.086,7.298-11.628,7.298-19.628
		C228.543,80.324,227.625,75.981,225.791,71.98z"/>
	<path d="M330.343,2.4h23.396v129.233h-23.396v-9.855c-4.566,4.343-9.146,7.471-13.738,9.384c-4.594,1.914-9.573,2.871-14.937,2.871
		c-12.041,0-22.456-4.671-31.244-14.012s-13.182-20.953-13.182-34.836c0-14.397,4.251-26.194,12.754-35.394
		c8.503-9.198,18.831-13.797,30.986-13.797c5.592,0,10.841,1.058,15.749,3.171c4.908,2.114,9.444,5.285,13.611,9.512V2.4z
		 M305.749,57.589c-7.232,0-13.239,2.558-18.022,7.67c-4.783,5.114-7.174,11.67-7.174,19.668c0,8.055,2.433,14.684,7.302,19.882
		c4.869,5.199,10.861,7.798,17.979,7.798c7.346,0,13.438-2.556,18.278-7.67c4.839-5.112,7.26-11.812,7.26-20.096
		c0-8.112-2.421-14.683-7.26-19.711C319.271,60.104,313.151,57.589,305.749,57.589z"/>
	<path d="M462.905,91.783h-75.158c1.086,6.628,3.986,11.898,8.699,15.812c4.713,3.914,10.725,5.87,18.039,5.87
		c8.742,0,16.254-3.056,22.539-9.17l19.711,9.256c-4.914,6.971-10.799,12.126-17.654,15.468c-6.855,3.343-14.998,5.014-24.424,5.014
		c-14.627,0-26.539-4.613-35.736-13.84c-9.199-9.227-13.798-20.782-13.798-34.665c0-14.226,4.585-26.038,13.755-35.437
		c9.17-9.397,20.666-14.097,34.494-14.097c14.682,0,26.621,4.7,35.82,14.097c9.199,9.399,13.799,21.81,13.799,37.236L462.905,91.783
		z M439.508,73.358c-1.545-5.198-4.592-9.427-9.143-12.683c-4.551-3.257-9.828-4.885-15.838-4.885
		c-6.523,0-12.246,1.829-17.168,5.484c-3.09,2.286-5.951,6.313-8.584,12.083H439.508z"/>
	<path d="M471.971,38.393h20.054v11.741c2.17-4.628,5.056-8.142,8.655-10.541s7.541-3.599,11.826-3.599
		c3.027,0,6.198,0.801,9.513,2.399l-7.284,20.139c-2.742-1.371-5-2.057-6.771-2.057c-3.6,0-6.642,2.228-9.127,6.684
		c-2.485,4.457-3.728,13.198-3.728,26.224l0.086,4.542v37.707h-23.225V38.393z"/>
	<path d="M529.201,38.393h23.396v9.555c5.306-4.472,10.111-7.583,14.419-9.332c4.307-1.749,8.715-2.623,13.222-2.623
		c9.242,0,17.086,3.228,23.533,9.684c5.42,5.485,8.13,13.598,8.13,24.338v61.617h-23.139V90.802c0-11.127-0.499-18.517-1.497-22.169
		s-2.735-6.434-5.216-8.346c-2.479-1.912-5.542-2.868-9.189-2.868c-4.73,0-8.792,1.584-12.183,4.751
		c-3.392,3.168-5.743,7.548-7.054,13.14c-0.685,2.911-1.026,9.216-1.026,18.917v37.407h-23.396V38.393z"/>
	<path d="M635.752,0c4.102,0,7.619,1.486,10.553,4.457c2.935,2.971,4.401,6.571,4.401,10.798c0,4.171-1.452,7.728-4.358,10.669
		c-2.905,2.943-6.38,4.414-10.424,4.414c-4.159,0-7.706-1.5-10.641-4.499c-2.934-3-4.399-6.642-4.399-10.927
		c0-4.113,1.451-7.627,4.356-10.541C628.147,1.457,631.65,0,635.752,0z M624.055,38.393h23.396v93.24h-23.396V38.393z"/>
	<path d="M670.654,4.028h23.396v34.365h13.884v20.139h-13.884v73.101h-23.396V58.532h-11.998V38.393h11.998V4.028z"/>
	<path d="M705.712,38.393h23.908l24.219,58.503l26.725-58.503h23.977l-58.396,127.348h-24.162l19.172-41.066L705.712,38.393z"/>
</g>
<g>
</g>
<g>
</g>
<g>
</g>
<g>
</g>
<g>
</g>
<g>
</g>
<g>
</g>
<g>
</g>
<g>
</g>
<g>
</g>
<g>
</g>
<g>
</g>
<g>
</g>
<g>
</g>
<g>
</g>
</svg>
